G04 DipTrace 3.2.0.1*
G04 BottomSilk.gbr*
%MOIN*%
G04 #@! TF.FileFunction,Legend,Bot*
G04 #@! TF.Part,Single*
%ADD10C,0.009843*%
%ADD34C,0.015422*%
%ADD84C,0.00772*%
%FSLAX26Y26*%
G04*
G70*
G90*
G75*
G01*
G04 BotSilk*
%LPD*%
X831316Y1866573D2*
D10*
G02X831316Y1866573I200000J0D01*
G01*
X1094316Y1764213D2*
X1165156D1*
X1129756Y1803573D2*
Y1728773D1*
X1374494Y562713D2*
X1425636D1*
X1446867Y1574210D2*
Y1873418D1*
X1265765Y1574210D2*
Y1873418D1*
X1446867Y1664745D2*
X1265765D1*
X628925Y1209752D2*
Y1260894D1*
X1500636Y720432D2*
X1449494D1*
D34*
X1497266Y1213873D3*
X1547408Y1223074D2*
D10*
Y1341179D1*
X1567093D1*
Y1223074D1*
X1547408D1*
X990372Y195824D2*
Y912321D1*
X1242339Y195824D2*
Y912321D1*
X990372D2*
X1242339D1*
X990372Y195824D2*
X1084848D1*
X1147862D2*
X1242339D1*
X1084848D2*
G02X1147862Y195824I31507J-53D01*
G01*
X811804Y454872D2*
X831494D1*
Y659604D1*
X811804D1*
X717327D2*
X697636D1*
Y454872D1*
X717327D1*
X587454Y637669D2*
D84*
X582701Y640046D1*
X577892Y644854D1*
X575516Y649607D1*
Y659169D1*
X577892Y663977D1*
X582701Y668730D1*
X587454Y671162D1*
X594639Y673539D1*
X606632D1*
X613762Y671162D1*
X618571Y668730D1*
X623324Y663977D1*
X625756Y659169D1*
Y649607D1*
X623324Y644854D1*
X618571Y640046D1*
X613762Y637669D1*
X585132Y622230D2*
X582701Y617421D1*
X575571Y610236D1*
X625755D1*
X588438Y500474D2*
X583685Y502851D1*
X578876Y507659D1*
X576500Y512412D1*
Y521974D1*
X578876Y526782D1*
X583685Y531535D1*
X588438Y533967D1*
X595623Y536344D1*
X607617D1*
X614746Y533967D1*
X619555Y531535D1*
X624308Y526782D1*
X626740Y521974D1*
Y512412D1*
X624308Y507659D1*
X619555Y502851D1*
X614746Y500474D1*
X588493Y482603D2*
X586117D1*
X581308Y480226D1*
X578932Y477850D1*
X576555Y473041D1*
Y463480D1*
X578932Y458727D1*
X581308Y456350D1*
X586117Y453918D1*
X590870D1*
X595678Y456350D1*
X602808Y461103D1*
X626740Y485035D1*
Y451541D1*
X1039036Y1631794D2*
X1041412Y1636548D1*
X1046221Y1641356D1*
X1050974Y1643733D1*
X1060535D1*
X1065344Y1641356D1*
X1070097Y1636548D1*
X1072529Y1631794D1*
X1074906Y1624609D1*
Y1612616D1*
X1072529Y1605486D1*
X1070097Y1600678D1*
X1065344Y1595924D1*
X1060535Y1593493D1*
X1050974D1*
X1046221Y1595924D1*
X1041412Y1600678D1*
X1039036Y1605486D1*
X999665Y1593493D2*
Y1643677D1*
X1023596Y1610239D1*
X987726D1*
X1387993Y770042D2*
X1383240Y772419D1*
X1378432Y777227D1*
X1376055Y781980D1*
Y791542D1*
X1378432Y796351D1*
X1383240Y801104D1*
X1387993Y803536D1*
X1395178Y805912D1*
X1407172D1*
X1414301Y803536D1*
X1419110Y801104D1*
X1423863Y796350D1*
X1426295Y791542D1*
Y781980D1*
X1423863Y777227D1*
X1419110Y772419D1*
X1414301Y770042D1*
X1376110Y725918D2*
Y749795D1*
X1397610Y752171D1*
X1395233Y749795D1*
X1392802Y742610D1*
Y735480D1*
X1395233Y728295D1*
X1399987Y723486D1*
X1407172Y721110D1*
X1411925D1*
X1419110Y723486D1*
X1423918Y728295D1*
X1426295Y735480D1*
Y742610D1*
X1423918Y749795D1*
X1421486Y752171D1*
X1416733Y754603D1*
X1480071Y1729136D2*
X1475317Y1731513D1*
X1470509Y1736321D1*
X1468132Y1741074D1*
Y1750636D1*
X1470509Y1755444D1*
X1475317Y1760197D1*
X1480071Y1762629D1*
X1487256Y1765006D1*
X1499249D1*
X1506379Y1762629D1*
X1511187Y1760197D1*
X1515940Y1755444D1*
X1518372Y1750636D1*
Y1741074D1*
X1515940Y1736321D1*
X1511187Y1731513D1*
X1506379Y1729136D1*
X1475317Y1685012D2*
X1470564Y1687389D1*
X1468188Y1694574D1*
Y1699327D1*
X1470564Y1706512D1*
X1477749Y1711320D1*
X1489687Y1713697D1*
X1501626D1*
X1511187Y1711320D1*
X1515996Y1706512D1*
X1518372Y1699327D1*
Y1696950D1*
X1515996Y1689820D1*
X1511187Y1685012D1*
X1504002Y1682635D1*
X1501626D1*
X1494441Y1685012D1*
X1489687Y1689820D1*
X1487311Y1696950D1*
Y1699327D1*
X1489687Y1706512D1*
X1494441Y1711320D1*
X1501626Y1713697D1*
X553697Y1321017D2*
X556074Y1325771D1*
X560882Y1330579D1*
X565635Y1332956D1*
X575197D1*
X580005Y1330579D1*
X584759Y1325771D1*
X587190Y1321017D1*
X589567Y1313832D1*
Y1301839D1*
X587190Y1294709D1*
X584759Y1289901D1*
X580005Y1285148D1*
X575197Y1282716D1*
X565635D1*
X560882Y1285148D1*
X556074Y1289901D1*
X553697Y1294709D1*
X507141Y1316209D2*
X509573Y1309024D1*
X514326Y1304216D1*
X521511Y1301839D1*
X523888D1*
X531073Y1304216D1*
X535826Y1309024D1*
X538258Y1316209D1*
Y1318586D1*
X535826Y1325771D1*
X531073Y1330524D1*
X523888Y1332900D1*
X521511D1*
X514326Y1330524D1*
X509573Y1325771D1*
X507141Y1316209D1*
Y1304216D1*
X509573Y1292277D1*
X514326Y1285092D1*
X521511Y1282716D1*
X526264D1*
X533449Y1285092D1*
X535826Y1289901D1*
X1459056Y524134D2*
X1454303Y526511D1*
X1449495Y531319D1*
X1447118Y536072D1*
Y545634D1*
X1449494Y550442D1*
X1454303Y555195D1*
X1459056Y557627D1*
X1466241Y560004D1*
X1478235D1*
X1485364Y557627D1*
X1490173Y555195D1*
X1494926Y550442D1*
X1497358Y545634D1*
Y536072D1*
X1494926Y531319D1*
X1490173Y526510D1*
X1485364Y524134D1*
X1456735Y508695D2*
X1454303Y503886D1*
X1447173Y496701D1*
X1497358D1*
X1447173Y466892D2*
X1449550Y474077D1*
X1456735Y478885D1*
X1468673Y481262D1*
X1475858D1*
X1487796Y478885D1*
X1494981Y474077D1*
X1497358Y466892D1*
Y462139D1*
X1494981Y454954D1*
X1487796Y450201D1*
X1475858Y447769D1*
X1468673D1*
X1456735Y450201D1*
X1449550Y454954D1*
X1447173Y462139D1*
Y466892D1*
X1456735Y450201D2*
X1487796Y478885D1*
X1404720Y1144319D2*
X1442967D1*
X1450152Y1146696D1*
X1452528Y1149128D1*
X1454960Y1153881D1*
Y1158689D1*
X1452528Y1163442D1*
X1450152Y1165819D1*
X1442967Y1168251D1*
X1438214D1*
X1414337Y1128880D2*
X1411905Y1124072D1*
X1404775Y1116887D1*
X1454960D1*
X1190720Y1148069D2*
X1228967D1*
X1236152Y1150446D1*
X1238528Y1152878D1*
X1240960Y1157631D1*
Y1162439D1*
X1238528Y1167192D1*
X1236152Y1169569D1*
X1228967Y1172001D1*
X1224214D1*
X1202714Y1130198D2*
X1200337D1*
X1195529Y1127821D1*
X1193152Y1125445D1*
X1190776Y1120636D1*
Y1111075D1*
X1193152Y1106322D1*
X1195529Y1103945D1*
X1200337Y1101513D1*
X1205090D1*
X1209899Y1103945D1*
X1217029Y1108698D1*
X1240960Y1132630D1*
Y1099137D1*
X1585622Y1414402D2*
X1590375Y1412081D1*
X1595184Y1407272D1*
X1597560Y1402464D1*
X1599992Y1395279D1*
Y1383340D1*
X1597560Y1376155D1*
X1595184Y1371402D1*
X1590375Y1366594D1*
X1585622Y1364217D1*
X1576061D1*
X1571252Y1366594D1*
X1566499Y1371402D1*
X1564122Y1376155D1*
X1561690Y1383340D1*
Y1395279D1*
X1564122Y1402464D1*
X1566499Y1407272D1*
X1571252Y1412081D1*
X1576061Y1414402D1*
X1585622D1*
X1578437Y1373779D2*
X1564122Y1359409D1*
X1543819Y1402408D2*
Y1404785D1*
X1541443Y1409593D1*
X1539066Y1411970D1*
X1534258Y1414347D1*
X1524696D1*
X1519943Y1411970D1*
X1517566Y1409593D1*
X1515134Y1404785D1*
Y1400032D1*
X1517566Y1395223D1*
X1522319Y1388094D1*
X1546251Y1364162D1*
X1512758D1*
X1764211Y1473849D2*
Y1452349D1*
X1761779Y1445164D1*
X1759403Y1442732D1*
X1754649Y1440355D1*
X1749841D1*
X1745088Y1442732D1*
X1742656Y1445164D1*
X1740279Y1452349D1*
Y1473849D1*
X1790519Y1473848D1*
X1764211Y1457102D2*
X1790519Y1440355D1*
X1740335Y1420108D2*
Y1393855D1*
X1759458Y1408169D1*
Y1400984D1*
X1761834Y1396231D1*
X1764211Y1393855D1*
X1771396Y1391423D1*
X1776149D1*
X1783334Y1393855D1*
X1788143Y1398608D1*
X1790519Y1405793D1*
Y1412978D1*
X1788143Y1420108D1*
X1785711Y1422484D1*
X1780958Y1424916D1*
X1396565Y1451391D2*
X1375065D1*
X1367880Y1453823D1*
X1365448Y1456200D1*
X1363072Y1460953D1*
Y1465762D1*
X1365448Y1470515D1*
X1367880Y1472947D1*
X1375065Y1475323D1*
X1396565D1*
Y1425083D1*
X1379818Y1451391D2*
X1363072Y1425083D1*
X1323701D2*
Y1475268D1*
X1347632Y1441830D1*
X1311763D1*
X1589093Y1153140D2*
Y1131640D1*
X1586661Y1124455D1*
X1584284Y1122023D1*
X1579531Y1119647D1*
X1574723D1*
X1569970Y1122023D1*
X1567538Y1124455D1*
X1565161Y1131640D1*
Y1153140D1*
X1615401D1*
X1589093Y1136393D2*
X1615401Y1119647D1*
X1565216Y1075522D2*
Y1099399D1*
X1586716Y1101775D1*
X1584340Y1099399D1*
X1581908Y1092214D1*
Y1085084D1*
X1584340Y1077899D1*
X1589093Y1073091D1*
X1596278Y1070714D1*
X1601031D1*
X1608216Y1073091D1*
X1613025Y1077899D1*
X1615401Y1085084D1*
Y1092214D1*
X1613025Y1099399D1*
X1610593Y1101775D1*
X1605840Y1104207D1*
X1146818Y985544D2*
Y949674D1*
X1144442Y942489D1*
X1139633Y937736D1*
X1132448Y935304D1*
X1127695D1*
X1120510Y937736D1*
X1115702Y942489D1*
X1113325Y949674D1*
Y985544D1*
X1097886Y975927D2*
X1093077Y978359D1*
X1085892Y985489D1*
Y935304D1*
X797405Y748583D2*
X778282Y724651D1*
Y698343D1*
X759158Y748583D2*
X778282Y724651D1*
X743719Y738966D2*
X738911Y741398D1*
X731726Y748528D1*
Y698343D1*
M02*
