M48
INCH
T01C0.0191
T02C0.0276
T03C0.0315
T04C0.0354
T05C0.1181
%
T01
X+009906Y+008786
X+009906Y+008296
X+008746Y+007396
X+009916Y+005296
X+009916Y+004796
X+009916Y+004296
X+012001Y+005291
X+013563Y+005291
X+013563Y+004791
X+012501Y+006791
X+015446Y+006716
X+015446Y+006196
X+008299Y+013865
X+005016Y+014746
X+004666Y+015096
X+004306Y+015456
X+003956Y+015806
X+013466Y+017476
X+014056Y+017476
T02
X+010313Y+019666
X+010313Y+017666
T03
X+008126Y+012291
X+008913Y+012291
X+009700Y+012291
X+010488Y+012291
X+011275Y+012291
X+012063Y+012291
X+012850Y+012291
X+013637Y+012291
X+013637Y+010416
X+012850Y+010416
X+012063Y+010416
X+011275Y+010416
X+010488Y+010416
X+009700Y+010416
X+008913Y+010416
X+008126Y+010416
X+006376Y+011291
X+005588Y+011291
X+004801Y+011291
X+005313Y+009478
X+005313Y+008691
X+005313Y+007903
X+005313Y+007116
X+005313Y+006329
X+005313Y+005541
X+005313Y+004754
X+005313Y+003966
X+005313Y+003179
X+016188Y+003179
X+016188Y+003966
X+016188Y+004754
X+016188Y+005541
X+016188Y+006329
X+016188Y+007116
X+016188Y+007903
X+016188Y+008691
X+016188Y+009478
X+016941Y+012851
X+016941Y+015843
T04
X+007938Y+001228
X+008938Y+001228
X+009938Y+001228
X+010938Y+001228
X+011938Y+001228
X+012938Y+001228
X+018063Y+006728
X+018063Y+007728
X+011876Y+014728
X+010876Y+014728
X+009876Y+014728
X+008876Y+014728
X+007501Y+016291
X+006791Y+016995
X+006081Y+017699
X+005371Y+018404
T05
X+002905Y+010375
X+018059Y+010434
T00
M30
