G04 DipTrace 3.2.0.1*
G04 TopMask.gbr*
%MOIN*%
G04 #@! TF.FileFunction,Soldermask,Top*
G04 #@! TF.Part,Single*
%AMOUTLINE1*
4,1,4,
-0.044542,-0.002784,
0.002784,0.044542,
0.044542,0.002784,
-0.002784,-0.044542,
-0.044542,-0.002784,
0*%
%AMOUTLINE4*
4,1,4,
0.013917,0.041759,
0.041757,0.013922,
-0.013917,-0.041759,
-0.041757,-0.013922,
0.013917,0.041759,
0*%
%AMOUTLINE7*
4,1,4,
0.000709,0.061241,
0.061241,-0.000709,
-0.000709,-0.061241,
-0.061241,0.000709,
0.000709,0.061241,
0*%
%AMOUTLINE10*
4,1,4,
-0.037402,0.037402,
0.037402,0.037402,
0.037402,-0.037402,
-0.037402,-0.037402,
-0.037402,0.037402,
0*%
%ADD42R,0.07874X0.086614*%
%ADD44C,0.11811*%
%ADD52R,0.09252X0.135827*%
%ADD54R,0.09252X0.045276*%
%ADD56R,0.031496X0.086614*%
%ADD58R,0.086614X0.031496*%
%ADD62C,0.086614*%
%ADD64O,0.07874X0.086614*%
%ADD67C,0.074803*%
%ADD69R,0.074803X0.074803*%
%ADD76C,0.086614*%
%ADD78R,0.086614X0.086614*%
%ADD80R,0.066929X0.059055*%
%ADD87OUTLINE1*%
%ADD90OUTLINE4*%
%ADD93OUTLINE7*%
%ADD96OUTLINE10*%
%FSLAX26Y26*%
G04*
G70*
G90*
G75*
G01*
G04 TopMask*
%LPD*%
D80*
X1032565Y1829573D3*
Y1904376D3*
D78*
X1031316Y1966573D3*
D76*
Y1766573D3*
D80*
X1152565Y1896573D3*
Y1821769D3*
D87*
X751147Y1772282D3*
X804041Y1719388D3*
D80*
X1043565Y671573D3*
Y746376D3*
X633565Y841573D3*
Y766769D3*
D69*
X812565Y1229073D3*
D67*
X891305D3*
X970046D3*
X1048786D3*
X1127526D3*
X1206266D3*
X1285006D3*
X1363746D3*
D69*
X812565Y1041573D3*
D67*
X891305D3*
X970046D3*
X1048786D3*
X1127526D3*
X1206266D3*
X1285006D3*
X1363746D3*
D42*
X793816Y122822D3*
D64*
X893816D3*
X993816D3*
X1093816D3*
X1193816D3*
X1293816D3*
D78*
X1187565Y1472822D3*
D62*
X1087565D3*
X987565D3*
X887565D3*
D78*
X1806315Y672822D3*
D62*
Y772822D3*
D69*
X1618815Y947822D3*
D67*
Y869082D3*
Y790342D3*
Y711601D3*
Y632861D3*
Y554121D3*
Y475381D3*
Y396641D3*
Y317901D3*
D69*
X531316Y947822D3*
D67*
Y869082D3*
Y790342D3*
Y711601D3*
Y632861D3*
Y554121D3*
Y475381D3*
Y396641D3*
Y317901D3*
D78*
X1694061Y1584289D3*
D62*
Y1285076D3*
D56*
X1100065Y604073D3*
X1150065D3*
X1200065D3*
X1250065D3*
X1300065D3*
X1350065D3*
X1400065D3*
Y816671D3*
X1350065D3*
X1300065D3*
X1250065D3*
X1200065D3*
X1150065D3*
X1100065D3*
D90*
X356315Y1541572D3*
X391673Y1506219D3*
X427031Y1470866D3*
X462388Y1435513D3*
X609368Y1582511D3*
X574010Y1617864D3*
X538653Y1653217D3*
X503295Y1688570D3*
D93*
X750066Y1629058D3*
D76*
X679060Y1699504D3*
X608066Y1769933D3*
X537050Y1840369D3*
D54*
X1247565Y1912573D3*
Y1822021D3*
Y1731470D3*
D52*
X1475912Y1822021D3*
D96*
X637565Y1129073D3*
D67*
X558825D3*
X480085D3*
D58*
X931315Y729073D3*
Y779073D3*
Y829073D3*
Y879073D3*
X718716D3*
Y829073D3*
Y779073D3*
Y729073D3*
D44*
X290518Y1037489D3*
X1805872Y1043384D3*
M02*
