G04 DipTrace 3.2.0.1*
G04 TopSilk.gbr*
%MOIN*%
G04 #@! TF.FileFunction,Legend,Top*
G04 #@! TF.Part,Single*
%ADD10C,0.009843*%
%ADD38C,0.017724*%
%ADD39C,0.015431*%
%ADD84C,0.00772*%
%FSLAX26Y26*%
G04*
G70*
G90*
G75*
G01*
G04 TopSilk*
%LPD*%
X1126994Y1937932D2*
D10*
X1178136D1*
X703820Y1783446D2*
X739983Y1819609D1*
X1069136Y630213D2*
X1017994D1*
X607994Y882932D2*
X659136D1*
X819401Y1110323D2*
X1381920D1*
X819401Y1291573D2*
X1425667D1*
X731906D2*
Y1110323D1*
X825671D1*
X819401Y1291573D2*
X731906D1*
X1444406D2*
Y1110323D1*
X1381920D1*
X1444406Y1291573D2*
X1425667D1*
X819401Y922823D2*
X1381920D1*
X819401Y1104073D2*
X1425667D1*
X731906D2*
Y922823D1*
X825671D1*
X819401Y1104073D2*
X731906D1*
X1444406D2*
Y922823D1*
X1381920D1*
X1444406Y1104073D2*
X1425667D1*
X743816Y72822D2*
X1343816D1*
X743816Y172822D2*
X1343816D1*
X743816Y72822D2*
Y172822D1*
X1343816Y72822D2*
Y172822D1*
X1250164Y1338964D2*
X824967D1*
Y1586995D1*
X1250164D1*
Y1338964D1*
X1856315Y822822D2*
X1756315D1*
X1856315Y622822D2*
Y822822D1*
Y622822D2*
X1756315D1*
Y822822D1*
X1681807Y1030499D2*
X1496767D1*
Y247034D1*
X1681807D1*
Y1030499D1*
X594308D2*
X409269D1*
Y247034D1*
X594308D1*
Y1030499D1*
X1434219Y1434683D2*
G02X1434219Y1434683I259843J0D01*
G01*
X1080769Y659184D2*
X1419362D1*
X1080769Y761560D2*
X1419362D1*
Y659184D2*
Y761560D1*
X1080769Y659184D2*
Y690677D1*
Y730066D2*
Y761560D1*
Y690677D2*
G03X1080769Y730066I12J19694D01*
G01*
D38*
X314420Y1556454D3*
X337655Y1569939D2*
D10*
X311191Y1596399D1*
X448462Y1733688D1*
X474926Y1707227D1*
X490762Y1416851D2*
X517226Y1390391D1*
X654497Y1527679D1*
X628033Y1554139D1*
X825241Y1632621D2*
X449738Y1265712D1*
X165821Y1556280D1*
X541324Y1923189D1*
X825241Y1632621D1*
D39*
X1217371Y1950902D3*
X1306621Y1951941D2*
D10*
Y1692111D1*
X1416856Y1951941D2*
Y1692111D1*
X1306621D2*
X1416856D1*
X1306621Y1951941D2*
X1416856D1*
X716305Y1066080D2*
X409219D1*
Y1247183D1*
X716305D1*
Y1066080D1*
X876204Y705645D2*
Y902500D1*
X773827Y705645D2*
Y902500D1*
X876204D2*
X773827D1*
X844710Y705645D2*
X876204D1*
X805321D2*
X773827D1*
X844710D2*
G03X805321Y705645I-19694J-9D01*
G01*
X22065Y1044323D2*
G02X22065Y1044323I1025000J0D01*
G01*
X941753Y1864380D2*
D84*
X937000Y1862003D1*
X932191Y1857195D1*
X929815Y1852442D1*
Y1842880D1*
X932191Y1838072D1*
X937000Y1833318D1*
X941753Y1830887D1*
X948938Y1828510D1*
X960931D1*
X968061Y1830887D1*
X972870Y1833318D1*
X977623Y1838072D1*
X980055Y1842880D1*
Y1852442D1*
X977623Y1857195D1*
X972870Y1862003D1*
X968061Y1864380D1*
X929870Y1884628D2*
Y1910881D1*
X948993Y1896566D1*
Y1903751D1*
X951370Y1908504D1*
X953746Y1910881D1*
X960931Y1913312D1*
X965685D1*
X972870Y1910881D1*
X977678Y1906127D1*
X980055Y1898942D1*
Y1891757D1*
X977678Y1884628D1*
X975246Y1882251D1*
X970493Y1879819D1*
X1136627Y1992615D2*
X1131874Y1990238D1*
X1127065Y1985430D1*
X1124689Y1980677D1*
Y1971115D1*
X1127065Y1966307D1*
X1131874Y1961553D1*
X1136627Y1959122D1*
X1143812Y1956745D1*
X1155805D1*
X1162935Y1959122D1*
X1167744Y1961553D1*
X1172497Y1966307D1*
X1174929Y1971115D1*
Y1980677D1*
X1172497Y1985430D1*
X1167744Y1990238D1*
X1162935Y1992615D1*
X1124744Y2019992D2*
X1127121Y2012863D1*
X1131874Y2010431D1*
X1136682D1*
X1141435Y2012863D1*
X1143867Y2017616D1*
X1146244Y2027177D1*
X1148620Y2034362D1*
X1153429Y2039116D1*
X1158182Y2041492D1*
X1165367D1*
X1170120Y2039116D1*
X1172552Y2036739D1*
X1174929Y2029554D1*
Y2019992D1*
X1172552Y2012862D1*
X1170120Y2010431D1*
X1165367Y2008054D1*
X1158182D1*
X1153429Y2010431D1*
X1148620Y2015239D1*
X1146244Y2022369D1*
X1143867Y2031931D1*
X1141435Y2036739D1*
X1136682Y2039116D1*
X1131874D1*
X1127121Y2036739D1*
X1124744Y2029554D1*
Y2019992D1*
X822567Y1828352D2*
X820191Y1833105D1*
X815382Y1837913D1*
X810629Y1840290D1*
X801067D1*
X796259Y1837913D1*
X791506Y1833105D1*
X789074Y1828352D1*
X786697Y1821167D1*
Y1809173D1*
X789074Y1802043D1*
X791506Y1797235D1*
X796259Y1792482D1*
X801067Y1790050D1*
X810629D1*
X815382Y1792482D1*
X820191Y1797235D1*
X822567Y1802043D1*
X838006Y1830673D2*
X842815Y1833105D1*
X850000Y1840235D1*
Y1790050D1*
X865439Y1830673D2*
X870248Y1833105D1*
X877433Y1840235D1*
Y1790050D1*
X1027556Y818637D2*
X1022803Y816261D1*
X1017994Y811452D1*
X1015618Y806699D1*
Y797137D1*
X1017994Y792329D1*
X1022803Y787576D1*
X1027556Y785144D1*
X1034741Y782767D1*
X1046735D1*
X1053864Y785144D1*
X1058673Y787576D1*
X1063426Y792329D1*
X1065858Y797137D1*
Y806699D1*
X1063426Y811452D1*
X1058673Y816261D1*
X1053864Y818637D1*
X1025235Y834076D2*
X1022803Y838885D1*
X1015673Y846070D1*
X1065858D1*
X1027611Y863941D2*
X1025235D1*
X1020426Y866318D1*
X1018050Y868694D1*
X1015673Y873503D1*
Y883064D1*
X1018050Y887817D1*
X1020426Y890194D1*
X1025235Y892626D1*
X1029988D1*
X1034796Y890194D1*
X1041926Y885441D1*
X1065858Y861509D1*
Y895003D1*
X617556Y638265D2*
X612803Y635888D1*
X607994Y631080D1*
X605618Y626326D1*
Y616765D1*
X607994Y611956D1*
X612803Y607203D1*
X617556Y604771D1*
X624741Y602395D1*
X636735D1*
X643864Y604771D1*
X648673Y607203D1*
X653426Y611956D1*
X655858Y616765D1*
Y626326D1*
X653426Y631079D1*
X648673Y635888D1*
X643864Y638265D1*
X615235Y653704D2*
X612803Y658512D1*
X605673Y665697D1*
X655858D1*
X605673Y685945D2*
Y712198D1*
X624796Y697883D1*
Y705068D1*
X627173Y709821D1*
X629550Y712198D1*
X636735Y714630D1*
X641488D1*
X648673Y712198D1*
X653481Y707445D1*
X655858Y700260D1*
Y693075D1*
X653481Y685945D1*
X651049Y683568D1*
X646296Y681136D1*
X1486580Y1203378D2*
Y1165132D1*
X1484203Y1157947D1*
X1481772Y1155570D1*
X1477018Y1153138D1*
X1472210D1*
X1467457Y1155570D1*
X1465080Y1157947D1*
X1462648Y1165132D1*
Y1169885D1*
X1506828Y1203323D2*
X1533081D1*
X1518766Y1184200D1*
X1525951D1*
X1530704Y1181823D1*
X1533081Y1179447D1*
X1535513Y1172262D1*
Y1167508D1*
X1533081Y1160323D1*
X1528328Y1155515D1*
X1521142Y1153138D1*
X1513957D1*
X1506828Y1155515D1*
X1504451Y1157947D1*
X1502019Y1162700D1*
X664033Y1024737D2*
Y986490D1*
X661657Y979305D1*
X659225Y976928D1*
X654472Y974497D1*
X649663D1*
X644910Y976928D1*
X642534Y979305D1*
X640102Y986490D1*
Y991243D1*
X703404Y974497D2*
Y1024681D1*
X679473Y991243D1*
X715343D1*
X1031316Y246045D2*
Y207798D1*
X1028939Y200613D1*
X1026507Y198237D1*
X1021754Y195805D1*
X1016945D1*
X1012192Y198237D1*
X1009816Y200613D1*
X1007384Y207798D1*
Y212552D1*
X1075440Y245990D2*
X1051563D1*
X1049187Y224490D1*
X1051563Y226866D1*
X1058748Y229298D1*
X1065878D1*
X1073063Y226866D1*
X1077872Y222113D1*
X1080248Y214928D1*
Y210175D1*
X1077872Y202990D1*
X1073063Y198182D1*
X1065878Y195805D1*
X1058748D1*
X1051563Y198182D1*
X1049187Y200613D1*
X1046755Y205367D1*
X934745Y1652344D2*
Y1614098D1*
X932369Y1606913D1*
X929937Y1604536D1*
X925184Y1602104D1*
X920375D1*
X915622Y1604536D1*
X913246Y1606913D1*
X910814Y1614098D1*
Y1618851D1*
X978870Y1645159D2*
X976493Y1649912D1*
X969308Y1652289D1*
X964555D1*
X957370Y1649912D1*
X952561Y1642727D1*
X950185Y1630789D1*
Y1618851D1*
X952561Y1609289D1*
X957370Y1604481D1*
X964555Y1602104D1*
X966931D1*
X974061Y1604481D1*
X978870Y1609289D1*
X981246Y1616474D1*
Y1618851D1*
X978870Y1626036D1*
X974061Y1630789D1*
X966931Y1633166D1*
X964555D1*
X957370Y1630789D1*
X952561Y1626036D1*
X950185Y1618851D1*
X1876005Y696605D2*
X1914252D1*
X1921437Y694229D1*
X1923813Y691797D1*
X1926245Y687044D1*
Y682235D1*
X1923813Y677482D1*
X1921437Y675105D1*
X1914252Y672673D1*
X1909498D1*
X1885622Y712044D2*
X1883190Y716853D1*
X1876060Y724038D1*
X1926245D1*
X1887999Y741909D2*
X1885622D1*
X1880814Y744286D1*
X1878437Y746662D1*
X1876060Y751471D1*
Y761032D1*
X1878437Y765785D1*
X1880813Y768162D1*
X1885622Y770594D1*
X1890375D1*
X1895184Y768162D1*
X1902313Y763409D1*
X1926245Y739477D1*
Y772970D1*
X1704056Y428291D2*
X1742303D1*
X1749488Y425914D1*
X1751864Y423482D1*
X1754296Y418729D1*
Y413921D1*
X1751864Y409168D1*
X1749488Y406791D1*
X1742303Y404359D1*
X1737550D1*
X1713673Y443730D2*
X1711241Y448539D1*
X1704112Y455724D1*
X1754296D1*
Y495094D2*
X1704112Y495095D1*
X1737550Y471163D1*
Y507033D1*
X326203Y678495D2*
X364450D1*
X371635Y676118D1*
X374011Y673686D1*
X376443Y668933D1*
Y664125D1*
X374011Y659372D1*
X371635Y656995D1*
X364450Y654563D1*
X359696D1*
X335820Y693934D2*
X333388Y698743D1*
X326258Y705928D1*
X376443D1*
X326258Y750052D2*
Y726175D1*
X347758Y723799D1*
X345382Y726175D1*
X342950Y733360D1*
Y740490D1*
X345382Y747675D1*
X350135Y752484D1*
X357320Y754860D1*
X362073D1*
X369258Y752484D1*
X374067Y747675D1*
X376443Y740490D1*
Y733360D1*
X374067Y726175D1*
X371635Y723799D1*
X366882Y721367D1*
X1607164Y1771685D2*
Y1721445D1*
X1635849D1*
X1684782Y1764500D2*
X1680029Y1769309D1*
X1672844Y1771685D1*
X1663282D1*
X1656097Y1769309D1*
X1651288Y1764500D1*
Y1759747D1*
X1653720Y1754939D1*
X1656097Y1752562D1*
X1660850Y1750186D1*
X1675220Y1745377D1*
X1680029Y1743000D1*
X1682405Y1740569D1*
X1684782Y1735815D1*
Y1728630D1*
X1680029Y1723877D1*
X1672844Y1721445D1*
X1663282D1*
X1656097Y1723877D1*
X1651288Y1728630D1*
X1702653Y1759692D2*
Y1762068D1*
X1705029Y1766877D1*
X1707406Y1769254D1*
X1712215Y1771630D1*
X1721776D1*
X1726529Y1769254D1*
X1728906Y1766877D1*
X1731338Y1762068D1*
Y1757315D1*
X1728906Y1752507D1*
X1724153Y1745377D1*
X1700221Y1721445D1*
X1733714D1*
X1432748Y669159D2*
X1468618D1*
X1475803Y671536D1*
X1480556Y676344D1*
X1482988Y683529D1*
Y688282D1*
X1480556Y695467D1*
X1475803Y700276D1*
X1468618Y702652D1*
X1432748D1*
X1432803Y722900D2*
Y749153D1*
X1451926Y734838D1*
Y742023D1*
X1454303Y746776D1*
X1456680Y749153D1*
X1463865Y751585D1*
X1468618D1*
X1475803Y749153D1*
X1480611Y744400D1*
X1482988Y737215D1*
Y730030D1*
X1480611Y722900D1*
X1478179Y720523D1*
X1473426Y718091D1*
X160034Y1461500D2*
Y1425630D1*
X162411Y1418445D1*
X167219Y1413692D1*
X174404Y1411260D1*
X179157D1*
X186342Y1413692D1*
X191151Y1418445D1*
X193527Y1425630D1*
Y1461500D1*
X232898Y1411260D2*
Y1461445D1*
X208967Y1428007D1*
X244837D1*
X599988Y1937357D2*
Y1901487D1*
X602364Y1894302D1*
X607173Y1889549D1*
X614358Y1887117D1*
X619111D1*
X626296Y1889549D1*
X631104Y1894302D1*
X633481Y1901487D1*
Y1937357D1*
X677605Y1937302D2*
X653729D1*
X651352Y1915802D1*
X653729Y1918178D1*
X660914Y1920610D1*
X668043D1*
X675228Y1918178D1*
X680037Y1913425D1*
X682413Y1906240D1*
Y1901487D1*
X680037Y1894302D1*
X675228Y1889493D1*
X668043Y1887117D1*
X660914D1*
X653729Y1889493D1*
X651352Y1891925D1*
X648920Y1896678D1*
X1324694Y1669622D2*
Y1633752D1*
X1327071Y1626567D1*
X1331879Y1621814D1*
X1339064Y1619382D1*
X1343818D1*
X1351003Y1621814D1*
X1355811Y1626567D1*
X1358188Y1633752D1*
Y1669622D1*
X1402312Y1662437D2*
X1399935Y1667190D1*
X1392750Y1669566D1*
X1387997D1*
X1380812Y1667190D1*
X1376003Y1660005D1*
X1373627Y1648067D1*
Y1636128D1*
X1376003Y1626567D1*
X1380812Y1621758D1*
X1387997Y1619382D1*
X1390374D1*
X1397503Y1621758D1*
X1402312Y1626567D1*
X1404688Y1633752D1*
Y1636128D1*
X1402312Y1643313D1*
X1397503Y1648067D1*
X1390374Y1650443D1*
X1387997D1*
X1380812Y1648067D1*
X1376003Y1643313D1*
X1373627Y1636128D1*
X312938Y1175080D2*
Y1139210D1*
X315314Y1132025D1*
X320123Y1127272D1*
X327308Y1124840D1*
X332061D1*
X339246Y1127272D1*
X344054Y1132025D1*
X346431Y1139210D1*
Y1175080D1*
X371432Y1124840D2*
X395364Y1175025D1*
X361870D1*
X783830Y684384D2*
Y648514D1*
X786207Y641329D1*
X791015Y636576D1*
X798200Y634144D1*
X802953D1*
X810138Y636576D1*
X814947Y641329D1*
X817323Y648514D1*
Y684384D1*
X844701Y684329D2*
X837571Y681952D1*
X835139Y677199D1*
Y672391D1*
X837571Y667638D1*
X842324Y665206D1*
X851886Y662829D1*
X859071Y660452D1*
X863824Y655644D1*
X866201Y650891D1*
Y643706D1*
X863824Y638953D1*
X861448Y636521D1*
X854263Y634144D1*
X844701D1*
X837571Y636521D1*
X835139Y638953D1*
X832763Y643706D1*
Y650891D1*
X835139Y655644D1*
X839948Y660452D1*
X847078Y662829D1*
X856639Y665206D1*
X861448Y667638D1*
X863824Y672391D1*
Y677199D1*
X861448Y681952D1*
X854263Y684329D1*
X844701D1*
M02*
